<?xml version="1.0" standalone="no"?>
<!DOCTYPE svg PUBLIC "-//W3C//DTD SVG 20010904//EN"
 "http://www.w3.org/TR/2001/REC-SVG-20010904/DTD/svg10.dtd">
<svg version="1.0" xmlns="http://www.w3.org/2000/svg"
 width="512.000000pt" height="512.000000pt" viewBox="0 0 512.000000 512.000000"
 preserveAspectRatio="xMidYMid meet">
<metadata>
Created by potrace 1.11, written by Peter Selinger 2001-2013
</metadata>
<g transform="translate(0.000000,512.000000) scale(0.100000,-0.100000)"
fill="#000000" stroke="none">
<path d="M490 3838 c38 -35 96 -59 120 -50 18 7 9 13 -52 40 -86 38 -102 40
-68 10z"/>
<path d="M655 3780 c12 -5 14 -9 6 -9 -8 -1 -12 -3 -9 -6 3 -3 13 -2 22 1 14
5 15 9 4 15 -7 5 -20 8 -28 8 -10 0 -8 -3 5 -9z"/>
<path d="M465 3700 c-4 -7 13 -17 105 -58 39 -17 42 -21 25 -28 -19 -7 -35
-23 -35 -35 0 -3 24 -18 54 -33 44 -22 52 -31 49 -49 -5 -23 16 -39 119 -90
29 -15 36 -24 35 -45 -2 -22 7 -31 58 -62 33 -20 79 -55 103 -78 24 -23 61
-51 82 -62 22 -11 40 -27 40 -34 0 -15 97 -86 118 -86 7 0 22 -11 34 -25 12
-14 28 -25 35 -25 7 0 13 -4 13 -9 0 -15 31 -24 100 -30 58 -5 65 -9 68 -28 2
-13 -1 -23 -7 -23 -6 0 -8 -6 -5 -13 4 -13 84 -20 84 -7 0 3 16 7 36 8 27 2
43 -3 61 -19 26 -25 17 -39 -25 -39 -13 0 -21 -4 -18 -8 7 -12 115 -7 150 7
16 6 31 9 34 6 3 -3 0 -5 -6 -5 -7 0 -12 -5 -12 -11 0 -6 7 -9 15 -6 17 7 30
-9 15 -18 -20 -12 -10 -26 10 -15 11 6 25 8 30 5 6 -3 10 -1 10 4 0 6 -4 11
-10 11 -5 0 -7 7 -3 17 5 14 8 13 15 -7 7 -19 10 -21 25 -9 15 12 16 12 9 -6
-14 -36 -11 -45 19 -63 16 -9 38 -26 48 -37 54 -61 67 -79 67 -96 0 -10 6 -19
14 -19 15 0 39 -54 29 -64 -4 -3 -1 -6 5 -6 6 0 19 -15 28 -32 9 -18 22 -36
28 -40 6 -4 7 -8 3 -8 -5 0 -1 -12 7 -27 8 -16 26 -55 41 -88 14 -33 29 -65
33 -71 21 -34 49 -71 64 -88 10 -11 18 -26 18 -33 0 -7 4 -13 9 -13 6 0 8 17
5 38 -4 35 -4 36 9 12 7 -14 32 -44 55 -68 23 -24 42 -49 42 -57 0 -19 -8 -19
-26 0 -9 8 -26 15 -40 15 -28 0 -32 -24 -10 -55 7 -11 16 -31 20 -45 l7 -25
-19 24 -20 25 9 -45 c21 -102 22 -112 12 -106 -6 4 -16 1 -22 -7 -9 -11 -9
-15 1 -19 10 -4 8 -10 -6 -21 -19 -16 -19 -16 1 -16 18 0 21 -5 18 -31 -3 -23
-1 -30 9 -26 20 8 36 -13 36 -46 0 -22 4 -28 15 -23 17 6 21 -2 29 -49 3 -16
9 -44 14 -61 6 -20 6 -36 1 -41 -13 -13 -20 -75 -8 -68 5 4 9 21 10 38 1 29 2
28 17 -18 9 -27 20 -51 24 -53 5 -2 8 -10 8 -18 0 -8 4 -14 9 -14 6 0 7 16 4
36 -5 29 -3 36 8 32 8 -3 19 2 26 11 11 14 12 13 13 -6 0 -37 16 -34 17 3 1
18 -3 31 -8 28 -5 -3 -6 2 -3 10 10 25 24 8 24 -29 0 -19 5 -37 11 -41 6 -3 8
-17 5 -29 -3 -13 -2 -27 4 -30 5 -3 10 1 10 10 0 9 4 14 9 11 5 -3 12 6 16 21
4 19 9 23 14 14 6 -9 10 -5 15 13 5 22 11 25 30 20 22 -5 24 -2 28 50 3 32 12
63 21 74 9 10 17 29 17 41 0 12 4 20 9 17 5 -3 14 1 21 9 7 8 19 15 27 15 12
0 14 7 10 30 -4 16 -2 32 3 35 6 3 10 15 10 26 0 16 4 19 23 14 57 -18 296
-133 312 -151 5 -7 17 -14 25 -17 9 -3 5 -6 -9 -6 -42 -2 -10 -21 70 -41 84
-22 97 -24 84 -11 -15 14 -258 143 -275 146 -3 0 -16 8 -30 17 -14 9 -56 32
-95 52 -38 20 -58 33 -42 30 47 -11 29 3 -28 21 -76 24 -78 28 -84 138 0 16
-5 26 -11 22 -6 -3 -14 3 -18 15 -4 12 -12 22 -17 23 -6 1 -9 7 -9 14 1 6 -4
14 -11 17 -8 3 -11 -4 -9 -20 1 -13 -2 -22 -7 -18 -5 3 -9 11 -9 18 0 7 -9 23
-20 36 -11 13 -20 28 -20 34 0 6 5 4 11 -4 8 -11 9 -7 5 19 -3 18 -6 47 -6 64
0 30 0 31 -18 11 -11 -11 -23 -33 -29 -49 -10 -31 -50 -43 -60 -18 -3 7 -10
10 -15 7 -7 -4 -6 -9 1 -14 9 -5 7 -11 -5 -21 -16 -12 -17 -12 -9 1 8 13 6 13
-8 1 -9 -7 -14 -18 -10 -24 3 -6 1 -7 -5 -3 -7 4 -12 2 -12 -3 0 -6 -5 -11
-10 -11 -7 0 -7 8 1 23 l12 22 -23 -20 -23 -20 13 25 c15 31 79 90 96 90 22 0
44 43 44 88 0 43 -1 43 -56 69 -70 32 -137 29 -186 -9 l-33 -25 4 44 c1 24 -1
56 -7 71 -5 15 -15 46 -22 70 -7 23 -17 42 -22 42 -5 0 -7 4 -4 8 3 5 -1 20
-8 33 -7 14 -16 43 -20 65 -3 21 -13 66 -21 99 l-14 59 24 -29 c13 -17 24 -38
25 -47 0 -10 4 -18 9 -18 11 0 9 15 -6 50 -6 14 -25 71 -43 126 -38 122 -54
148 -86 141 -30 -5 -49 7 -38 24 20 33 13 54 -33 101 -35 35 -52 46 -66 42
-19 -6 -37 9 -37 31 0 6 4 3 10 -5 5 -8 12 -11 16 -7 17 17 -86 94 -108 81 -7
-5 -29 -9 -50 -9 -27 -1 -39 4 -48 19 -6 13 -9 14 -6 4 3 -10 1 -20 -4 -23 -5
-3 -10 7 -12 21 -3 27 -32 42 -44 23 -3 -5 -12 -2 -21 6 -18 19 -26 15 -17 -9
3 -9 16 -16 28 -16 20 -1 20 -1 3 -14 -17 -13 -15 -15 22 -21 41 -7 54 -21 26
-27 -10 -2 -7 -6 9 -14 21 -10 24 -9 20 5 -3 9 2 4 11 -11 13 -23 23 -28 55
-28 22 0 40 -3 40 -6 0 -16 -32 -35 -50 -29 -27 9 -96 -5 -78 -16 8 -5 2 -8
-19 -6 -19 1 -28 6 -23 12 4 6 2 16 -6 23 -8 7 -14 8 -14 2 0 -5 -5 -10 -11
-10 -6 0 -8 8 -5 18 4 13 -2 21 -25 29 -25 10 -29 16 -24 33 6 19 4 21 -13 16
-16 -5 -21 -1 -25 21 -3 18 0 31 9 36 8 4 14 13 14 18 0 6 -5 7 -10 4 -6 -3
-14 4 -19 17 l-10 23 0 -22 c-1 -13 -6 -23 -12 -23 -6 0 -8 8 -5 18 10 33 -20
56 -74 56 -27 0 -50 3 -50 6 0 3 -9 6 -20 6 -11 0 -20 -3 -20 -6 0 -4 -13 -5
-30 -2 -16 2 -30 0 -30 -6 0 -27 -86 -12 -105 19 -4 5 -17 9 -30 9 -13 0 -27
5 -30 10 -9 14 -97 54 -112 52 -7 -2 -13 1 -13 7 0 10 -179 88 -192 83 -5 -1
-8 2 -8 7 0 5 -9 13 -20 16 -32 10 -23 25 15 23 19 -1 32 -4 30 -8 -3 -4 5
-10 18 -14 35 -9 40 -7 27 9 -7 8 -18 15 -24 15 -6 0 -47 18 -91 40 -44 22
-93 40 -110 40 -27 1 -90 13 -188 38 -20 6 -39 7 -42 2z m335 -106 c0 -8 -19
-13 -24 -6 -3 5 1 9 9 9 8 0 15 -2 15 -3z m947 -366 c-3 -8 -6 -5 -6 6 -1 11
2 17 5 13 3 -3 4 -12 1 -19z m126 -33 c-3 -9 -8 -14 -10 -11 -3 3 -2 9 2 15 9
16 15 13 8 -4z m74 -19 c-3 -6 -10 -10 -16 -8 -6 1 -11 -2 -11 -8 0 -5 -5 -10
-11 -10 -6 0 -8 7 -5 16 3 8 2 12 -4 9 -6 -3 -10 -2 -10 4 0 11 29 19 48 13 7
-2 11 -10 9 -16z m-287 -36 c0 -5 -4 -10 -10 -10 -5 0 -10 5 -10 10 0 6 5 10
10 10 6 0 10 -4 10 -10z m360 -24 c0 -3 -4 -8 -10 -11 -5 -3 -10 -1 -10 4 0 6
5 11 10 11 6 0 10 -2 10 -4z m200 -350 c0 -3 -4 -8 -10 -11 -5 -3 -10 -1 -10
4 0 6 5 11 10 11 6 0 10 -2 10 -4z m279 -1311 l0 -20 -9 20 c-5 11 -9 27 -9
35 -1 13 0 13 9 0 5 -8 9 -24 9 -35z"/>
<path d="M1040 3620 c-8 -5 -10 -10 -5 -10 6 0 17 5 25 10 8 5 11 10 5 10 -5
0 -17 -5 -25 -10z"/>
<path d="M4685 3498 c-33 -5 -68 -17 -77 -25 -11 -10 -18 -12 -18 -5 0 17 -42
15 -81 -4 -24 -10 -26 -13 -9 -9 14 3 33 8 44 10 10 2 28 -1 39 -7 16 -8 37
-5 94 13 40 12 73 26 73 31 0 4 -1 7 -2 7 -2 -1 -30 -6 -63 -11z"/>
<path d="M4305 3430 c-19 -8 -19 -9 2 -9 12 -1 25 4 28 9 7 12 -2 12 -30 0z"/>
<path d="M4358 3433 c6 -2 18 -2 25 0 6 3 1 5 -13 5 -14 0 -19 -2 -12 -5z"/>
<path d="M4520 3399 c-30 -11 -65 -21 -76 -23 -54 -10 -133 -40 -127 -49 3 -6
1 -7 -5 -3 -14 8 -105 -28 -95 -38 4 -5 -2 -5 -14 -2 -13 4 -79 -10 -170 -35
-151 -43 -293 -59 -293 -35 0 7 -3 8 -8 1 -8 -12 -22 -13 -40 -1 -7 4 -18 3
-25 -3 -8 -6 -18 -6 -27 -1 -9 6 -19 3 -28 -8 -7 -9 -11 -11 -7 -5 4 8 1 11
-9 7 -8 -3 -17 -12 -20 -21 -4 -11 -10 -12 -19 -5 -13 10 -80 4 -73 -7 3 -4
-17 -8 -42 -9 -26 -1 -63 -6 -82 -12 -28 -8 -37 -7 -46 5 -10 13 -17 12 -60
-11 -66 -35 -146 -97 -189 -148 -39 -45 -43 -49 -81 -87 -14 -14 -37 -52 -50
-85 -47 -111 -86 -225 -81 -231 4 -3 0 -12 -8 -20 -8 -8 -15 -20 -14 -26 0 -9
2 -8 6 1 2 6 9 12 14 12 5 0 4 -10 -2 -22 -7 -13 -12 -25 -12 -28 0 -16 -29
-70 -38 -70 -6 0 -8 -7 -5 -16 3 -8 -1 -26 -10 -40 -9 -13 -13 -24 -9 -24 5 0
1 -8 -9 -18 -32 -36 -43 -109 -30 -205 7 -49 17 -94 23 -100 8 -8 11 -5 11 10
0 46 19 31 37 -28 10 -34 23 -61 28 -60 6 1 9 9 7 16 -2 10 3 13 13 9 19 -8
45 13 45 36 0 10 7 21 16 24 8 3 12 10 9 16 -3 5 1 10 10 10 8 0 18 7 21 15 4
8 12 15 19 15 8 0 17 9 20 20 3 11 10 20 14 20 5 0 14 14 21 30 7 17 15 30 19
30 3 0 14 21 25 46 10 25 21 43 24 40 8 -9 33 45 25 57 -3 6 -1 7 5 3 7 -4 14
3 18 19 3 14 13 29 21 33 8 5 15 18 16 30 0 12 7 24 15 27 7 3 11 9 7 14 -3 6
3 14 12 20 10 5 17 12 16 15 -7 15 -2 25 11 20 9 -3 17 3 21 17 5 16 9 18 15
8 7 -10 14 -6 32 16 13 16 23 34 24 40 1 28 17 53 40 66 14 7 32 26 40 41 13
26 44 30 44 6 0 -5 4 -7 9 -4 5 3 14 -1 21 -9 7 -8 17 -12 23 -8 6 4 30 6 52
5 27 -2 36 0 26 7 -9 6 -11 18 -7 36 6 25 10 27 46 21 21 -3 47 -9 57 -13 15
-6 16 -5 5 9 -8 10 -9 18 -3 22 6 4 8 12 5 20 -4 10 14 12 78 12 87 -1 130 16
143 57 4 9 13 17 22 17 23 0 113 52 124 71 5 10 37 33 71 51 34 18 68 44 77
59 8 14 43 41 79 59 35 18 68 43 74 54 5 12 34 32 65 46 30 14 65 34 77 45 26
24 182 105 202 105 27 0 14 20 -13 21 -16 1 -42 2 -60 3 -17 0 -35 4 -39 9 -9
9 -9 9 -74 -14z"/>
<path d="M4210 3400 c0 -5 7 -7 15 -4 8 4 15 8 15 10 0 2 -7 4 -15 4 -8 0 -15
-4 -15 -10z"/>
<path d="M4158 3395 c-4 -4 -74 -21 -118 -28 -55 -9 -253 -77 -246 -85 3 -3
16 -1 29 5 12 6 94 30 182 53 157 41 209 59 174 60 -9 0 -18 -2 -21 -5z"/>
<path d="M1720 3166 c0 -2 9 -6 20 -9 11 -3 18 -1 14 4 -5 9 -34 13 -34 5z"/>
<path d="M1720 3139 c0 -5 5 -7 10 -4 6 3 10 8 10 11 0 2 -4 4 -10 4 -5 0 -10
-5 -10 -11z"/>
<path d="M3427 2710 c-3 -11 -2 -18 3 -15 4 3 11 -5 15 -18 3 -12 8 -17 11
-11 2 6 -2 23 -9 38 -13 25 -15 25 -20 6z"/>
<path d="M3376 2661 c-5 -7 -3 -18 3 -24 14 -14 20 -6 11 17 -5 15 -9 16 -14
7z"/>
<path d="M2644 2232 c-13 -8 -10 -40 5 -55 8 -8 11 -6 11 6 0 9 -5 17 -10 17
-7 0 -7 6 0 20 12 22 11 24 -6 12z"/>
<path d="M2350 2070 c0 -5 5 -10 11 -10 5 0 7 5 4 10 -3 6 -8 10 -11 10 -2 0
-4 -4 -4 -10z"/>
<path d="M2208 1754 c-16 -8 -28 -22 -27 -32 0 -10 3 -12 6 -4 2 6 10 9 15 6
7 -5 8 -2 4 5 -5 8 0 14 13 18 12 3 21 9 21 14 0 11 1 11 -32 -7z"/>
<path d="M2095 1696 c-33 -19 -59 -39 -57 -46 2 -7 -3 -10 -12 -7 -10 4 -13 1
-9 -9 3 -7 1 -14 -5 -14 -6 0 -13 6 -15 13 -4 9 -6 9 -6 -1 -1 -7 -5 -11 -10
-8 -4 3 -29 -10 -55 -28 -26 -19 -43 -36 -38 -40 5 -3 42 3 81 13 73 19 99 31
68 31 -24 0 -21 16 6 35 12 8 22 21 22 27 0 7 24 21 53 33 28 11 52 23 52 27
0 13 -13 9 -75 -26z"/>
<path d="M2870 1696 c0 -7 71 -49 75 -44 2 2 -14 14 -36 26 -21 12 -39 21 -39
18z"/>
<path d="M1660 1654 c-210 -42 -350 -75 -355 -84 -2 -4 33 1 78 11 45 10 159
27 252 39 161 20 245 35 245 45 0 3 -13 2 -30 -1 -35 -8 -40 3 -7 16 40 16 -8
9 -183 -26z"/>
<path d="M2180 1639 c-35 -31 -35 -31 -3 -9 18 11 35 25 38 30 10 16 2 11 -35
-21z"/>
<path d="M3375 1611 c18 -9 17 -10 -10 -11 -69 -5 87 -30 251 -41 203 -13 255
-8 94 10 -101 11 -254 33 -330 47 -22 4 -23 3 -5 -5z"/>
<path d="M2272 1574 c-7 -14 -8 -23 -2 -19 15 9 32 45 22 45 -5 0 -14 -12 -20
-26z"/>
<path d="M2102 1557 c-12 -13 -22 -27 -22 -33 0 -5 5 -2 10 6 5 8 10 10 10 4
0 -18 -27 -37 -33 -24 -4 7 -5 7 -3 0 1 -7 5 -11 10 -10 5 1 12 -4 16 -10 9
-15 33 -3 27 13 -2 7 0 20 5 29 7 14 5 16 -9 11 -16 -6 -16 -4 1 15 26 29 15
28 -12 -1z"/>
<path d="M2786 1562 c2 -3 0 -10 -5 -16 -5 -6 -5 -20 -1 -31 7 -18 8 -17 15 8
4 16 3 32 -2 36 -6 5 -8 6 -7 3z"/>
<path d="M2391 1532 c-6 -11 -11 -29 -11 -39 1 -16 2 -16 12 2 6 11 15 22 19
25 4 3 4 12 0 19 -7 11 -11 9 -20 -7z"/>
<path d="M2120 1516 c0 -2 7 -7 16 -10 8 -3 12 -2 9 4 -6 10 -25 14 -25 6z"/>
<path d="M2800 1505 c0 -8 4 -15 9 -15 5 0 12 -10 16 -22 4 -16 8 -19 12 -10
6 15 -16 62 -29 62 -4 0 -8 -7 -8 -15z"/>
<path d="M3112 1485 c12 -14 23 -25 25 -25 2 0 -4 11 -13 25 -9 14 -20 25 -25
25 -5 0 1 -11 13 -25z"/>
<path d="M2511 1384 c0 -11 3 -14 6 -6 3 7 2 16 -1 19 -3 4 -6 -2 -5 -13z"/>
</g>
</svg>
