<svg width="596" height="66" viewBox="0 0 596 66" fill="none" xmlns="http://www.w3.org/2000/svg">
<path d="M475.34 38.7214C474.852 36.0266 475.177 33.2252 476.42 30.5188C476.892 29.4911 477.505 28.6289 478.205 27.9015C478.987 31.8042 477.938 35.7418 475.34 38.7214ZM425.156 49.9937C416.919 49.5752 408.897 45.7044 401.679 42.0265C386.218 34.1493 371.715 24.1964 356.683 15.5327C348.462 10.794 339.176 5.72698 329.531 3.45547C339.415 2.02864 350.841 5.55068 359.749 9.28292C374.986 15.6693 388.754 25.1602 403.011 33.3899C412.026 38.5945 421.186 43.7807 431.524 45.5901C434.662 46.1394 437.835 46.5268 441.023 46.7642C436.13 49.3766 429.865 50.232 425.156 49.9937ZM239.318 15.5327C224.285 24.1964 209.783 34.1493 194.322 42.0265C187.103 45.7044 179.081 49.5752 170.844 49.9937C166.136 50.232 159.871 49.3766 154.977 46.7642C158.165 46.5268 161.339 46.1394 164.477 45.5901C174.815 43.7807 183.976 38.5945 192.989 33.3899C207.245 25.1602 221.015 15.6693 236.251 9.28292C245.16 5.55068 256.587 2.02864 266.47 3.45547C256.826 5.72698 247.54 10.794 239.318 15.5327ZM120.661 38.7214C118.063 35.7418 117.014 31.8042 117.796 27.9015C118.495 28.6289 119.109 29.4911 119.581 30.5188C120.824 33.2252 121.149 36.0266 120.661 38.7214ZM573.125 31.2443C548.083 27.3784 530.51 49.4096 507.317 53.2193C497.425 54.8447 485.286 53.8673 478.554 45.5485C477.468 44.2059 476.631 42.7646 476.052 41.2661C481.462 37.9232 484.761 32.8484 482.627 25.4208C486.565 24.5809 490.875 26.5618 492.151 31.3092C492.225 31.5824 493.334 31.2966 493.276 31.008C492.016 24.8221 487.192 23.3701 482.385 24.6371C482.176 24.0094 481.944 23.3701 481.657 22.7095C478.331 15.0203 468.858 14.5321 462.168 17.7238C456.385 20.4835 450.186 27.4414 458.288 31.6376C458.99 32.0008 461.311 30.8879 460.936 30.6796C450.567 24.9035 467.351 11.6862 475.376 21.8697C476.566 23.3798 477.379 24.9936 477.879 26.6335C474.304 28.8992 471.485 32.5133 471.309 36.4237C471.224 38.3291 471.392 40.0514 471.758 41.6206C471.417 41.8143 471.077 42.008 470.712 42.1776C463.423 45.564 454.167 45.4303 446.025 44.8452C447.314 43.2596 448.307 41.4491 448.837 39.3791C448.93 39.013 448.032 39.2096 447.925 39.4886C447.129 41.5751 445.796 43.2954 444.125 44.6999C443.704 44.666 443.281 44.6321 442.867 44.5973C433.012 43.7729 425.176 41.0026 416.348 36.4867C390.705 23.3672 364.393 -0.550895 333.83 1.0222C330.828 1.17719 327.964 1.73804 325.254 2.63696C322.791 2.28921 320.314 2.14391 317.829 2.26597C311.835 2.56044 301.109 4.75057 298.001 10.8667C294.892 4.75057 284.165 2.56044 278.171 2.26597C275.688 2.14391 273.209 2.28921 270.747 2.63696C268.037 1.73804 265.171 1.17719 262.17 1.0222C231.608 -0.550895 205.294 23.3672 179.653 36.4867C170.825 41.0026 162.989 43.7729 153.134 44.5973C152.719 44.6321 152.297 44.666 151.875 44.6999C150.204 43.2954 148.872 41.5751 148.076 39.4886C147.969 39.2096 147.07 39.013 147.164 39.3791C147.694 41.4491 148.686 43.2596 149.975 44.8452C141.835 45.4303 132.577 45.564 125.289 42.1776C124.924 42.008 124.584 41.8143 124.243 41.6206C124.609 40.0514 124.777 38.3291 124.692 36.4237C124.517 32.5133 121.697 28.8992 118.122 26.6335C118.622 24.9936 119.435 23.3798 120.625 21.8697C128.649 11.6862 145.433 24.9035 135.065 30.6796C134.69 30.8879 137.011 32.0008 137.714 31.6376C145.815 27.4414 139.616 20.4835 133.833 17.7238C127.143 14.5321 117.67 15.0203 114.343 22.7095C114.056 23.3701 113.825 24.0094 113.616 24.6371C108.808 23.3701 103.985 24.8221 102.726 31.008C102.667 31.2966 103.776 31.5824 103.85 31.3092C105.125 26.5618 109.435 24.5809 113.373 25.4208C111.241 32.8484 114.538 37.9232 119.948 41.2661C119.369 42.7646 118.532 44.2059 117.447 45.5485C110.715 53.8673 98.5762 54.8447 88.6843 53.2193C65.4907 49.4096 47.9183 27.3784 22.8756 31.2443C13.9697 32.6198 -0.191044 37.7324 0.415336 49.0977C0.918069 58.5595 9.21365 65.1725 18.3975 65.343C25.8358 65.4815 32.0594 57.1956 25.9617 51.4127C22.8552 48.4671 16.7663 47.3618 16.8283 52.828C16.8331 53.2348 18.2658 53.5854 18.3268 53.2299C19.3584 47.2398 27.8332 52.9413 24.687 58.1401C19.7488 66.3049 7.42648 62.3528 5.99384 53.4692C3.8531 40.1957 18.0013 33.2301 29.3569 32.7864C51.8084 31.9098 67.8862 51.5852 89.4456 54.9377C101.036 56.7413 119.453 55.5789 123.774 43.2286C128.723 45.3238 134.556 46.3941 139.55 46.7622C143.676 47.0664 147.838 47.1322 151.989 46.9453C156.937 51.2539 164.492 53.199 170.789 52.9742C184.961 52.4676 197.58 45.4662 209.465 38.3291C223.794 29.7226 237.863 20.0466 252.863 12.6374C259.167 9.52315 265.846 6.4031 272.845 5.21359C277.122 7.06469 280.845 10.2777 283.572 15.368C288.621 24.7921 291.276 39.9138 280.882 47.0722C273.631 52.0666 262.5 52.2225 257.417 43.8359C256.065 41.609 255.092 38.8241 256.391 36.3017C257.127 34.8739 257.999 33.2591 259.424 32.4125C260.348 31.8643 265.233 29.0968 264.903 33.2717C264.865 33.7609 266.722 34.1532 266.777 33.7735C267.383 29.6257 262.275 29.1297 259.214 29.8969C252.46 31.5882 249.895 38.4211 253.924 44.0761C261.788 55.112 280.532 55.4724 288.868 45.225C295.066 37.6045 293.61 23.9716 288.304 16.2108C284.991 11.3665 280.755 7.46475 275.822 4.81934C283.141 4.25946 294.308 5.8345 297.262 13.0762C297.107 13.9528 297.085 14.8905 297.234 15.8998C297.27 16.1449 297.815 16.0383 298.001 15.8495C298.186 16.0383 298.731 16.1449 298.766 15.8998C298.915 14.8905 298.894 13.9528 298.739 13.0762C301.691 5.8345 312.861 4.25946 320.177 4.81934C315.247 7.46475 311.009 11.3665 307.698 16.2108C302.39 23.9716 300.935 37.6045 307.133 45.225C315.469 55.4724 334.213 55.112 342.075 44.0761C346.105 38.4211 343.54 31.5882 336.787 29.8969C333.727 29.1297 328.616 29.6257 329.223 33.7735C329.279 34.1532 331.135 33.7609 331.097 33.2717C330.768 29.0968 335.653 31.8643 336.575 32.4125C338.001 33.2591 338.873 34.8739 339.609 36.3017C340.91 38.8241 339.936 41.609 338.584 43.8359C333.5 52.2225 322.369 52.0666 315.119 47.0722C304.724 39.9138 307.379 24.7921 312.428 15.368C315.155 10.2777 318.879 7.06469 323.157 5.21359C330.154 6.4031 336.835 9.52315 343.138 12.6374C358.137 20.0466 372.206 29.7226 386.535 38.3291C398.421 45.4662 411.039 52.4676 425.212 52.9742C431.509 53.199 439.064 51.2539 444.012 46.9453C448.162 47.1322 452.325 47.0664 456.451 46.7622C461.445 46.3941 467.277 45.3238 472.226 43.2286C476.548 55.5789 494.965 56.7413 506.556 54.9377C528.114 51.5852 544.193 31.9098 566.644 32.7864C577.999 33.2301 592.148 40.1957 590.007 53.4692C588.575 62.3528 576.253 66.3049 571.314 58.1401C568.168 52.9413 576.643 47.2398 577.674 53.2299C577.735 53.5854 579.168 53.2348 579.172 52.828C579.235 47.3618 573.146 48.4671 570.039 51.4127C563.942 57.1956 570.165 65.4815 577.604 65.343C586.787 65.1725 595.082 58.5595 595.586 49.0977C596.192 37.7324 582.031 32.6198 573.125 31.2443Z" fill="#282828"/>
</svg>
