<svg width="596" height="65" viewBox="0 0 596 65" fill="none" xmlns="http://www.w3.org/2000/svg">
<path d="M475.34 27.2161C474.852 29.9109 475.177 32.7123 476.42 35.4187C476.892 36.4464 477.505 37.3086 478.205 38.036C478.987 34.1333 477.938 30.1957 475.34 27.2161ZM425.156 15.9438C416.919 16.3623 408.897 20.2331 401.679 23.911C386.218 31.7882 371.715 41.7411 356.683 50.4048C348.462 55.1435 339.176 60.2105 329.531 62.482C339.415 63.9089 350.841 60.3868 359.749 56.6546C374.986 50.2682 388.754 40.7773 403.011 32.5476C412.026 27.343 421.186 22.1568 431.524 20.3474C434.662 19.7981 437.835 19.4107 441.023 19.1733C436.13 16.5609 429.865 15.7055 425.156 15.9438ZM239.318 50.4048C224.285 41.7411 209.783 31.7882 194.322 23.911C187.103 20.2331 179.081 16.3623 170.844 15.9438C166.136 15.7055 159.871 16.5609 154.977 19.1733C158.165 19.4107 161.339 19.7981 164.477 20.3474C174.815 22.1568 183.976 27.343 192.989 32.5476C207.245 40.7773 221.015 50.2682 236.251 56.6546C245.16 60.3868 256.587 63.9089 266.47 62.482C256.826 60.2105 247.54 55.1435 239.318 50.4048ZM120.661 27.2161C118.063 30.1957 117.014 34.1333 117.796 38.036C118.495 37.3086 119.109 36.4464 119.581 35.4187C120.824 32.7123 121.149 29.9109 120.661 27.2161ZM573.125 34.6932C548.083 38.5591 530.51 16.5279 507.317 12.7182C497.425 11.0928 485.286 12.0702 478.554 20.389C477.468 21.7316 476.631 23.1729 476.052 24.6714C481.462 28.0143 484.761 33.0891 482.627 40.5167C486.565 41.3566 490.875 39.3757 492.151 34.6283C492.225 34.3551 493.334 34.6409 493.276 34.9295C492.016 41.1154 487.192 42.5674 482.385 41.3004C482.176 41.9281 481.944 42.5674 481.657 43.228C478.331 50.9172 468.858 51.4054 462.168 48.2137C456.385 45.454 450.186 38.4961 458.288 34.2999C458.99 33.9367 461.311 35.0496 460.936 35.2579C450.567 41.034 467.351 54.2513 475.376 44.0678C476.566 42.5577 477.379 40.9439 477.879 39.304C474.304 37.0383 471.485 33.4242 471.309 29.5138C471.224 27.6084 471.392 25.8861 471.758 24.3169C471.417 24.1232 471.077 23.9295 470.712 23.7599C463.423 20.3735 454.167 20.5072 446.025 21.0923C447.314 22.6779 448.307 24.4884 448.837 26.5584C448.93 26.9245 448.032 26.7279 447.925 26.4489C447.129 24.3624 445.796 22.6421 444.125 21.2376C443.704 21.2715 443.281 21.3054 442.867 21.3402C433.012 22.1646 425.176 24.9349 416.348 29.4508C390.705 42.5703 364.393 66.4884 333.83 64.9153C330.828 64.7603 327.964 64.1995 325.254 63.3005C322.791 63.6483 320.314 63.7936 317.829 63.6715C311.835 63.3771 301.109 61.1869 298.001 55.0708C294.892 61.1869 284.165 63.3771 278.171 63.6715C275.688 63.7936 273.209 63.6483 270.747 63.3005C268.037 64.1995 265.171 64.7603 262.17 64.9153C231.608 66.4884 205.294 42.5703 179.653 29.4508C170.825 24.9349 162.989 22.1646 153.134 21.3402C152.719 21.3054 152.297 21.2715 151.875 21.2376C150.204 22.6421 148.872 24.3624 148.076 26.4489C147.969 26.7279 147.07 26.9245 147.164 26.5584C147.694 24.4884 148.686 22.6779 149.975 21.0923C141.835 20.5072 132.577 20.3735 125.289 23.7599C124.924 23.9295 124.584 24.1232 124.243 24.3169C124.609 25.8861 124.777 27.6084 124.692 29.5138C124.517 33.4242 121.697 37.0383 118.122 39.304C118.622 40.9439 119.435 42.5577 120.625 44.0678C128.649 54.2513 145.433 41.034 135.065 35.2579C134.69 35.0496 137.011 33.9367 137.714 34.2999C145.815 38.4961 139.616 45.454 133.833 48.2137C127.143 51.4054 117.67 50.9172 114.343 43.228C114.056 42.5674 113.825 41.9281 113.616 41.3004C108.808 42.5674 103.985 41.1154 102.726 34.9295C102.667 34.6409 103.776 34.3551 103.85 34.6283C105.125 39.3757 109.435 41.3566 113.373 40.5167C111.241 33.0891 114.538 28.0143 119.948 24.6714C119.369 23.1729 118.532 21.7316 117.447 20.389C110.715 12.0702 98.5762 11.0928 88.6843 12.7182C65.4907 16.5279 47.9183 38.5591 22.8756 34.6932C13.9697 33.3177 -0.191044 28.2051 0.415336 16.8398C0.918069 7.378 9.21365 0.764971 18.3975 0.594488C25.8358 0.45597 32.0594 8.74187 25.9617 14.5248C22.8552 17.4704 16.7663 18.5757 16.8283 13.1095C16.8331 12.7027 18.2658 12.3521 18.3268 12.7076C19.3584 18.6977 27.8332 12.9962 24.687 7.79742C19.7488 -0.367391 7.42648 3.58473 5.99384 12.4683C3.8531 25.7418 18.0013 32.7074 29.3569 33.1511C51.8084 34.0277 67.8862 14.3523 89.4456 10.9998C101.036 9.19617 119.453 10.3586 123.774 22.7089C128.723 20.6137 134.556 19.5434 139.55 19.1753C143.676 18.8711 147.838 18.8053 151.989 18.9922C156.937 14.6836 164.492 12.7385 170.789 12.9633C184.961 13.4699 197.58 20.4713 209.465 27.6084C223.794 36.2149 237.863 45.8909 252.863 53.3001C259.167 56.4144 265.846 59.5344 272.845 60.7239C277.122 58.8728 280.845 55.6598 283.572 50.5695C288.621 41.1454 291.276 26.0237 280.882 18.8653C273.631 13.8709 262.5 13.715 257.417 22.1016C256.065 24.3285 255.092 27.1134 256.391 29.6358C257.127 31.0636 257.999 32.6784 259.424 33.525C260.348 34.0732 265.233 36.8407 264.903 32.6658C264.865 32.1766 266.722 31.7843 266.777 32.164C267.383 36.3118 262.275 36.8078 259.214 36.0406C252.46 34.3493 249.895 27.5164 253.924 21.8614C261.788 10.8255 280.532 10.4651 288.868 20.7125C295.066 28.333 293.61 41.9659 288.304 49.7267C284.991 54.571 280.755 58.4728 275.822 61.1182C283.141 61.678 294.308 60.103 297.262 52.8613C297.107 51.9847 297.085 51.047 297.234 50.0377C297.27 49.7926 297.815 49.8992 298.001 50.088C298.186 49.8992 298.731 49.7926 298.766 50.0377C298.915 51.047 298.894 51.9847 298.739 52.8613C301.691 60.103 312.861 61.678 320.177 61.1182C315.247 58.4728 311.009 54.571 307.698 49.7267C302.39 41.9659 300.935 28.333 307.133 20.7125C315.469 10.4651 334.213 10.8255 342.075 21.8614C346.105 27.5164 343.54 34.3493 336.787 36.0406C333.727 36.8078 328.616 36.3118 329.223 32.164C329.279 31.7843 331.135 32.1766 331.097 32.6658C330.768 36.8407 335.653 34.0732 336.575 33.525C338.001 32.6784 338.873 31.0636 339.609 29.6358C340.91 27.1134 339.936 24.3285 338.584 22.1016C333.5 13.715 322.369 13.8709 315.119 18.8653C304.724 26.0237 307.379 41.1454 312.428 50.5695C315.155 55.6598 318.879 58.8728 323.157 60.7239C330.154 59.5344 336.835 56.4144 343.138 53.3001C358.137 45.8909 372.206 36.2149 386.535 27.6084C398.421 20.4713 411.039 13.4699 425.212 12.9633C431.509 12.7385 439.064 14.6836 444.012 18.9922C448.162 18.8053 452.325 18.8711 456.451 19.1753C461.445 19.5434 467.277 20.6137 472.226 22.7089C476.548 10.3586 494.965 9.19617 506.556 10.9998C528.114 14.3523 544.193 34.0277 566.644 33.1511C577.999 32.7074 592.148 25.7418 590.007 12.4683C588.575 3.58473 576.253 -0.367391 571.314 7.79742C568.168 12.9962 576.643 18.6977 577.674 12.7076C577.735 12.3521 579.168 12.7027 579.172 13.1095C579.235 18.5757 573.146 17.4704 570.039 14.5248C563.942 8.74187 570.165 0.45597 577.604 0.594488C586.787 0.764971 595.082 7.378 595.586 16.8398C596.192 28.2051 582.031 33.3177 573.125 34.6932Z" fill="#282828"/>
</svg>
